<mxfile host="app.diagrams.net" modified="2024-02-28T10:15:21.461Z" agent="Mozilla/5.0 (Macintosh; Intel Mac OS X 10_15_7) AppleWebKit/537.36 (KHTML, like Gecko) Chrome/122.0.0.0 Safari/537.36" etag="Jm5o1eU4Yd5IBQnhLBry" version="23.1.7" type="github">
  <diagram name="第 1 页" id="fWnvpqemcbtc1kPzCE-n">
    <mxGraphModel dx="954" dy="1539" grid="0" gridSize="10" guides="1" tooltips="1" connect="1" arrows="1" fold="1" page="0" pageScale="1" pageWidth="200000" pageHeight="200000" math="0" shadow="0">
      <root>
        <mxCell id="0" />
        <mxCell id="1" parent="0" />
        <mxCell id="H8s2qqIa4Dmselico5mK-5" value="" style="edgeStyle=none;curved=1;rounded=0;orthogonalLoop=1;jettySize=auto;html=1;fontSize=12;startSize=8;endSize=8;" edge="1" parent="1" source="H8s2qqIa4Dmselico5mK-1" target="H8s2qqIa4Dmselico5mK-4">
          <mxGeometry relative="1" as="geometry" />
        </mxCell>
        <mxCell id="H8s2qqIa4Dmselico5mK-1" value="兑付开始" style="rounded=1;whiteSpace=wrap;html=1;" vertex="1" parent="1">
          <mxGeometry x="108" y="-587" width="120" height="60" as="geometry" />
        </mxCell>
        <mxCell id="H8s2qqIa4Dmselico5mK-7" value="" style="edgeStyle=none;curved=1;rounded=0;orthogonalLoop=1;jettySize=auto;html=1;fontSize=12;startSize=8;endSize=8;" edge="1" parent="1" source="H8s2qqIa4Dmselico5mK-4" target="H8s2qqIa4Dmselico5mK-6">
          <mxGeometry relative="1" as="geometry" />
        </mxCell>
        <mxCell id="H8s2qqIa4Dmselico5mK-12" value="" style="edgeStyle=none;curved=1;rounded=0;orthogonalLoop=1;jettySize=auto;html=1;fontSize=12;startSize=8;endSize=8;" edge="1" parent="1" source="H8s2qqIa4Dmselico5mK-4" target="H8s2qqIa4Dmselico5mK-11">
          <mxGeometry relative="1" as="geometry" />
        </mxCell>
        <mxCell id="H8s2qqIa4Dmselico5mK-4" value="查询项目是否到兑付时间" style="rhombus;whiteSpace=wrap;html=1;rounded=1;" vertex="1" parent="1">
          <mxGeometry x="128" y="-417" width="80" height="80" as="geometry" />
        </mxCell>
        <mxCell id="H8s2qqIa4Dmselico5mK-6" value="结束" style="whiteSpace=wrap;html=1;rounded=1;" vertex="1" parent="1">
          <mxGeometry x="308" y="-407" width="120" height="60" as="geometry" />
        </mxCell>
        <mxCell id="H8s2qqIa4Dmselico5mK-8" value="否" style="text;html=1;align=center;verticalAlign=middle;resizable=0;points=[];autosize=1;strokeColor=none;fillColor=none;fontSize=16;" vertex="1" parent="1">
          <mxGeometry x="234.5" y="-406.5" width="34" height="31" as="geometry" />
        </mxCell>
        <mxCell id="H8s2qqIa4Dmselico5mK-14" value="" style="edgeStyle=none;curved=1;rounded=0;orthogonalLoop=1;jettySize=auto;html=1;fontSize=12;startSize=8;endSize=8;" edge="1" parent="1" source="H8s2qqIa4Dmselico5mK-11" target="H8s2qqIa4Dmselico5mK-13">
          <mxGeometry relative="1" as="geometry" />
        </mxCell>
        <mxCell id="H8s2qqIa4Dmselico5mK-16" value="" style="edgeStyle=none;curved=1;rounded=0;orthogonalLoop=1;jettySize=auto;html=1;fontSize=12;startSize=8;endSize=8;" edge="1" parent="1" source="H8s2qqIa4Dmselico5mK-11" target="H8s2qqIa4Dmselico5mK-15">
          <mxGeometry relative="1" as="geometry" />
        </mxCell>
        <mxCell id="H8s2qqIa4Dmselico5mK-11" value="判断是否在兑付中" style="rhombus;whiteSpace=wrap;html=1;rounded=1;" vertex="1" parent="1">
          <mxGeometry x="128" y="-217" width="80" height="80" as="geometry" />
        </mxCell>
        <mxCell id="H8s2qqIa4Dmselico5mK-13" value="结束" style="whiteSpace=wrap;html=1;rounded=1;" vertex="1" parent="1">
          <mxGeometry x="308" y="-207" width="120" height="60" as="geometry" />
        </mxCell>
        <mxCell id="H8s2qqIa4Dmselico5mK-18" value="" style="edgeStyle=none;curved=1;rounded=0;orthogonalLoop=1;jettySize=auto;html=1;fontSize=12;startSize=8;endSize=8;" edge="1" parent="1" source="H8s2qqIa4Dmselico5mK-15" target="H8s2qqIa4Dmselico5mK-17">
          <mxGeometry relative="1" as="geometry" />
        </mxCell>
        <mxCell id="H8s2qqIa4Dmselico5mK-15" value="生成项目兑付记录" style="whiteSpace=wrap;html=1;rounded=1;" vertex="1" parent="1">
          <mxGeometry x="108" y="-7" width="120" height="60" as="geometry" />
        </mxCell>
        <mxCell id="H8s2qqIa4Dmselico5mK-20" value="" style="edgeStyle=none;curved=1;rounded=0;orthogonalLoop=1;jettySize=auto;html=1;fontSize=12;startSize=8;endSize=8;" edge="1" parent="1" source="H8s2qqIa4Dmselico5mK-17" target="H8s2qqIa4Dmselico5mK-19">
          <mxGeometry relative="1" as="geometry" />
        </mxCell>
        <mxCell id="H8s2qqIa4Dmselico5mK-17" value="计算项目用户兑付记录" style="whiteSpace=wrap;html=1;rounded=1;" vertex="1" parent="1">
          <mxGeometry x="108" y="173" width="120" height="60" as="geometry" />
        </mxCell>
        <mxCell id="H8s2qqIa4Dmselico5mK-39" style="edgeStyle=none;curved=1;rounded=0;orthogonalLoop=1;jettySize=auto;html=1;entryX=0.5;entryY=0;entryDx=0;entryDy=0;fontSize=12;startSize=8;endSize=8;" edge="1" parent="1" source="H8s2qqIa4Dmselico5mK-19" target="H8s2qqIa4Dmselico5mK-38">
          <mxGeometry relative="1" as="geometry" />
        </mxCell>
        <mxCell id="H8s2qqIa4Dmselico5mK-19" value="创建用户兑付记录" style="whiteSpace=wrap;html=1;rounded=1;" vertex="1" parent="1">
          <mxGeometry x="108" y="353" width="120" height="60" as="geometry" />
        </mxCell>
        <mxCell id="H8s2qqIa4Dmselico5mK-31" value="" style="edgeStyle=none;curved=1;rounded=0;orthogonalLoop=1;jettySize=auto;html=1;fontSize=12;startSize=8;endSize=8;" edge="1" parent="1" source="H8s2qqIa4Dmselico5mK-28" target="H8s2qqIa4Dmselico5mK-30">
          <mxGeometry relative="1" as="geometry" />
        </mxCell>
        <mxCell id="H8s2qqIa4Dmselico5mK-28" value="更新用户发放记录成功or失败&lt;br&gt;更新用户发放统计" style="whiteSpace=wrap;html=1;rounded=1;" vertex="1" parent="1">
          <mxGeometry x="108" y="733" width="120" height="60" as="geometry" />
        </mxCell>
        <mxCell id="H8s2qqIa4Dmselico5mK-36" value="" style="edgeStyle=none;curved=1;rounded=0;orthogonalLoop=1;jettySize=auto;html=1;fontSize=12;startSize=8;endSize=8;" edge="1" parent="1" source="H8s2qqIa4Dmselico5mK-30" target="H8s2qqIa4Dmselico5mK-35">
          <mxGeometry relative="1" as="geometry" />
        </mxCell>
        <mxCell id="H8s2qqIa4Dmselico5mK-30" value="更新项目发放统计" style="whiteSpace=wrap;html=1;rounded=1;" vertex="1" parent="1">
          <mxGeometry x="108" y="913" width="120" height="60" as="geometry" />
        </mxCell>
        <mxCell id="H8s2qqIa4Dmselico5mK-35" value="结束" style="whiteSpace=wrap;html=1;rounded=1;" vertex="1" parent="1">
          <mxGeometry x="108" y="1093" width="120" height="60" as="geometry" />
        </mxCell>
        <mxCell id="H8s2qqIa4Dmselico5mK-40" style="edgeStyle=none;curved=1;rounded=0;orthogonalLoop=1;jettySize=auto;html=1;fontSize=12;startSize=8;endSize=8;" edge="1" parent="1" source="H8s2qqIa4Dmselico5mK-38" target="H8s2qqIa4Dmselico5mK-28">
          <mxGeometry relative="1" as="geometry" />
        </mxCell>
        <mxCell id="H8s2qqIa4Dmselico5mK-38" value="资产发放" style="rounded=1;whiteSpace=wrap;html=1;" vertex="1" parent="1">
          <mxGeometry x="108" y="533" width="120" height="60" as="geometry" />
        </mxCell>
      </root>
    </mxGraphModel>
  </diagram>
</mxfile>
